<svg width="24" height="24" viewBox="0 0 24 24" fill="none" xmlns="http://www.w3.org/2000/svg">
  <path fill-rule="evenodd" clip-rule="evenodd"
    d="M20.5008 10.5C20.7769 10.5 21.0008 10.2761 21.0008 9.99999V8.87498C21.0008 8.59883 20.7769 8.37498 20.5008 8.37498L9.46283 8.37449L9.46315 5.30011C9.46315 5.13442 9.32883 5.00011 9.16315 5.00011C9.09641 5.00011 9.03158 5.02236 8.97891 5.06334L3.26335 9.51073C3.21179 9.55085 3.17024 9.59906 3.13908 9.65217C2.97352 9.82147 2.94797 10.0902 3.09031 10.2901C3.18413 10.4218 3.33586 10.5 3.49757 10.5H20.5008ZM14.8375 19.4999C14.9042 19.4999 14.969 19.4776 15.0217 19.4366L20.7372 14.9893C20.7888 14.9491 20.8304 14.9009 20.8615 14.8478C21.0271 14.6785 21.0526 14.4098 20.9103 14.2099C20.8165 14.0782 20.6647 14 20.503 14H3.49983C3.22369 14 2.99983 14.2238 2.99983 14.5V15.625C2.99983 15.9012 3.22369 16.125 3.49983 16.125L14.5378 16.1255L14.5374 19.1999C14.5374 19.3656 14.6718 19.4999 14.8375 19.4999Z"
    fill="#4E5969" />
</svg>